# xmcd
#
# Track frame offsets:
#	150
#	9477
#	25553
#	37429
#	54597
#	71235
#	84590
#	98567
#	116166
#	131368
#	145509
#
# Disc length: 2126 seconds
#
# Revision: 0
# Processed by: cddbd v1.5.1PL2 Copyright (c) Steve Scherf et al.
# Submitted via: dBpowerAMP V4.0
#
DISCID=90084c0b
DTITLE=diligence wanted - wanted
DYEAR=2000
DGENRE=Bluegrass
TTITLE0=great balls of fire
TTITLE1=rocky top
TTITLE2=old banjo creek
TTITLE3=panama red
TTITLE4=blues stay away from me
TTITLE5=when the storm is over
TTITLE6=that's all right mama
TTITLE7=lost highway
TTITLE8=i saw the light
TTITLE9=honky tonk blues
TTITLE10=rollin'my sweet baby's arms
EXTD=
EXTT0=
EXTT1=
EXTT2=
EXTT3=
EXTT4=
EXTT5=
EXTT6=
EXTT7=
EXTT8=
EXTT9=
EXTT10=
PLAYORDER=
